<?xml version="1.0" encoding="UTF-8"?>
<svg id="Camada_2" xmlns="http://www.w3.org/2000/svg" viewBox="0 0 383.86 382.99">
  <defs>
    <style>
      .cls-1 {
        fill: #ddd9d4;
      }
    </style>
  </defs>
  <g id="Camada_1-2" data-name="Camada_1">
    <g>
      <path class="cls-1" d="M0,382.99V44.88c10.47.05,20.94.04,31.4.18,2.02.03,2.47-.64,2.45-2.53-.1-14.18-.09-28.36-.12-42.54h180.68c.02,13.83.14,27.66-.03,41.49-.04,3.05.91,3.65,3.73,3.6,8.74-.18,17.49.12,26.22-.16,3.38-.11,4.06.87,4.05,4.11-.13,31.27-.04,62.55-.15,93.82-.01,2.95.75,3.74,3.71,3.7,12.73-.17,25.47-.17,38.21,0,2.94.04,3.48-.9,3.46-3.59-.13-12.58.05-25.17-.14-37.75-.05-3.12.78-3.9,3.9-3.89,27.72.13,55.44.07,83.17.09,1.1,0,2.21.2,3.31.31v281.26H0ZM22.54,191.11c0,40.26.04,80.52-.07,120.78,0,2.98.8,3.69,3.72,3.67,16.36-.14,32.73-.14,49.09,0,2.85.02,3.81-.58,3.78-3.64-.16-16.45-.02-32.9-.14-49.36-.02-2.67.49-3.63,3.44-3.61,27.86.12,55.71.12,83.57,0,2.79-.01,3.55.65,3.52,3.48-.15,16.33,0,32.66-.14,48.98-.03,3.09.45,4.23,3.97,4.18,16.24-.23,32.48-.2,48.72-.02,3.21.04,3.82-.92,3.82-3.94-.09-80.02-.09-160.04,0-240.06,0-3.12-.51-4.16-3.98-4.16-65.08.13-130.17.12-195.25.02-3.21,0-4.14.63-4.13,4.02.14,39.88.09,79.77.09,119.65ZM248.31,264.81c0,30.54.05,61.09-.07,91.63-.01,3.15.53,4.17,4,4.15,35.11-.16,70.22-.14,105.33-.01,3.2.01,3.82-.88,3.81-3.91-.1-61.34-.09-122.67-.01-184.01,0-2.76-.47-3.75-3.57-3.74-35.23.13-70.47.12-105.71,0-3.11-.01-3.88.77-3.87,3.88.13,30.67.08,61.34.08,92ZM101.63,321.29c0,11.96.07,23.93-.05,35.89-.02,2.48.43,3.43,3.21,3.39,12.99-.16,25.98-.13,38.96-.02,2.41.02,3.16-.57,3.15-3.07-.1-24.3-.1-48.6,0-72.9.01-2.63-.91-3.06-3.22-3.04-12.99.09-25.98.11-38.96-.02-2.48-.02-3.17.67-3.14,3.12.12,12.21.05,24.42.05,36.63ZM124.07,22.5c-21.48,0-42.97.05-64.45-.06-2.65-.01-3.4.7-3.3,3.32.21,5.23.26,10.48-.02,15.7-.16,3.07.92,3.63,3.75,3.63,31.85-.1,63.71-.06,95.56-.06,10.99,0,21.99-.12,32.98.08,2.92.05,3.51-.82,3.4-3.52-.22-5.23-.24-10.47,0-15.7.13-2.82-.67-3.48-3.47-3.46-21.48.13-42.97.07-64.45.07ZM50.45,360.5c8.62,0,17.23-.06,25.85.05,2.11.03,2.79-.55,2.74-2.7-.14-5.73-.14-11.46,0-17.19.05-2.08-.51-2.74-2.67-2.73-16.98.09-33.96.09-50.95,0-2.25-.01-3.02.49-2.93,2.86.19,5.48.2,10.97,0,16.44-.09,2.56.54,3.4,3.24,3.33,8.24-.19,16.48-.07,24.72-.07ZM197.54,360.5c8.49,0,16.98-.06,25.47.04,2,.02,2.85-.37,2.79-2.61-.15-5.85-.14-11.71,0-17.56.05-2.05-.68-2.44-2.56-2.43-17.1.07-34.2.08-51.31-.01-2.26-.01-2.62.81-2.58,2.78.11,5.73.14,11.46,0,17.19-.06,2.17.68,2.68,2.74,2.65,8.49-.11,16.98-.04,25.47-.04ZM338.86,123.99c-6.73,0-13.46.07-20.19-.04-1.92-.03-2.59.45-2.55,2.47.13,5.84.15,11.69,0,17.53-.06,2.31.94,2.58,2.88,2.57,13.21-.07,26.42-.08,39.63.01,2.12.01,2.78-.57,2.73-2.71-.14-5.72-.14-11.44,0-17.16.05-2.09-.54-2.76-2.69-2.72-6.6.13-13.21.05-19.81.05Z"/>
      <path class="cls-1" d="M112.97,107.24c0,4.73-.07,9.46.03,14.18.04,1.89-.48,2.65-2.51,2.61-5.86-.12-11.72-.1-17.58,0-1.84.03-2.69-.39-2.67-2.45.09-9.7.07-19.4.01-29.11-.01-1.72.48-2.45,2.32-2.42,5.98.08,11.97.1,17.95,0,2.06-.04,2.51.79,2.48,2.65-.1,4.85-.03,9.7-.03,14.55Z"/>
      <path class="cls-1" d="M90.28,163.24c0-4.6.1-9.21-.05-13.8-.07-2.19.41-3.09,2.84-3.01,5.73.18,11.47.14,17.2.01,2.12-.05,2.77.59,2.74,2.72-.11,9.45-.1,18.91,0,28.36.02,2.02-.41,2.85-2.65,2.79-5.85-.15-11.72-.13-17.57-.01-1.95.04-2.59-.54-2.54-2.51.12-4.85.04-9.7.04-14.55Z"/>
      <path class="cls-1" d="M112.97,219.84c0,4.73-.09,9.45.04,14.18.05,1.98-.62,2.56-2.55,2.52-5.86-.11-11.72-.1-17.58,0-1.84.03-2.67-.34-2.64-2.43.1-9.7.08-19.4.01-29.1-.01-1.8.57-2.34,2.36-2.31,5.98.1,11.97.12,17.95,0,2.07-.04,2.49.75,2.45,2.61-.11,4.85-.04,9.7-.04,14.55Z"/>
      <path class="cls-1" d="M67.69,106.98c0,4.73-.06,9.45.03,14.17.04,1.92-.25,2.95-2.59,2.89-5.85-.16-11.71-.13-17.57-.01-2,.04-2.53-.67-2.52-2.58.08-9.57.07-19.15,0-28.72-.01-1.8.29-2.73,2.4-2.69,5.98.11,11.96.1,17.94,0,1.83-.03,2.35.65,2.32,2.39-.09,4.85-.03,9.7-.03,14.55Z"/>
      <path class="cls-1" d="M135.53,106.97c0-4.85.06-9.7-.03-14.55-.03-1.74.48-2.41,2.32-2.38,5.98.09,11.97.08,17.95,0,1.71-.02,2.41.44,2.4,2.3-.08,9.82-.06,19.65-.01,29.48,0,1.58-.48,2.21-2.13,2.19-6.11-.07-12.22-.09-18.32.01-1.98.03-2.21-.91-2.19-2.5.06-4.85.02-9.7.02-14.55Z"/>
      <path class="cls-1" d="M180.65,106.81c0-4.73.08-9.46-.04-14.19-.05-1.89.42-2.63,2.47-2.58,5.86.13,11.73.11,17.59,0,1.9-.03,2.6.44,2.58,2.47-.1,9.71-.08,19.42-.01,29.13.01,1.71-.38,2.43-2.27,2.39-5.99-.11-11.98-.13-17.97,0-2.16.05-2.41-.9-2.38-2.67.09-4.85.03-9.71.03-14.56Z"/>
      <path class="cls-1" d="M45.1,163.29c0-4.72.06-9.45-.03-14.17-.04-1.77.21-2.72,2.37-2.67,5.98.14,11.96.11,17.94.01,1.75-.03,2.36.44,2.34,2.27-.08,9.82-.07,19.64,0,29.46.01,1.64-.53,2.11-2.14,2.09-6.1-.08-12.21-.1-18.31,0-1.96.04-2.21-.83-2.19-2.46.08-4.85.03-9.7.03-14.54Z"/>
      <path class="cls-1" d="M135.54,163.46c0-4.85.1-9.7-.05-14.55-.06-2.03.65-2.48,2.54-2.45,5.86.11,11.71.11,17.57,0,1.91-.03,2.57.47,2.55,2.48-.1,9.57-.08,19.15-.01,28.72.01,1.78-.23,2.69-2.38,2.64-5.98-.14-11.96-.11-17.94-.01-1.78.03-2.36-.48-2.32-2.29.11-4.85.04-9.7.04-14.55Z"/>
      <path class="cls-1" d="M203.2,163.53c0,4.73-.07,9.46.04,14.18.04,1.81-.26,2.65-2.39,2.59-5.98-.15-11.97-.12-17.96-.01-1.85.04-2.28-.59-2.26-2.33.07-9.71.1-19.41-.02-29.12-.02-2.1.76-2.42,2.59-2.39,5.86.1,11.72.12,17.58-.01,2.01-.05,2.51.61,2.46,2.52-.13,4.85-.04,9.7-.04,14.56Z"/>
      <path class="cls-1" d="M67.68,219.6c0,4.72-.09,9.45.04,14.17.06,2-.34,2.84-2.6,2.78-5.85-.16-11.71-.13-17.57-.01-1.98.04-2.52-.61-2.5-2.54.09-9.57.09-19.14,0-28.72-.02-1.88.39-2.63,2.45-2.58,5.98.13,11.96.12,17.94,0,1.89-.04,2.3.63,2.26,2.36-.1,4.85-.03,9.7-.03,14.54Z"/>
      <path class="cls-1" d="M158.11,219.54c0,4.72-.08,9.45.04,14.17.05,1.95-.29,2.89-2.58,2.83-5.85-.16-11.71-.13-17.57,0-1.97.04-2.52-.52-2.5-2.49.1-9.57.11-19.15,0-28.72-.03-2.18.7-2.67,2.74-2.63,5.73.13,11.47.13,17.2,0,2.09-.05,2.8.53,2.73,2.68-.16,4.72-.05,9.45-.05,14.17Z"/>
      <path class="cls-1" d="M203.2,219.71c0,4.73-.04,9.46.02,14.19.02,1.69-.07,2.72-2.32,2.65-5.98-.18-11.97-.12-17.96-.02-1.76.03-2.34-.43-2.33-2.27.09-9.83.08-19.66,0-29.49-.01-1.68.54-2.09,2.14-2.07,6.11.08,12.22.12,18.33-.02,2.05-.05,2.15.9,2.12,2.47-.07,4.85-.02,9.71-.02,14.56Z"/>
      <path class="cls-1" d="M293.58,264.87c0,4.73-.07,9.45.03,14.18.04,1.88-.46,2.65-2.5,2.61-5.98-.11-11.97-.09-17.95,0-1.84.03-2.32-.68-2.31-2.42.06-9.7.06-19.4,0-29.1,0-1.7.44-2.45,2.3-2.42,5.98.09,11.97.11,17.95,0,2.06-.04,2.53.76,2.49,2.62-.09,4.85-.03,9.7-.03,14.55Z"/>
      <path class="cls-1" d="M270.89,320.98c0-4.6.1-9.21-.04-13.81-.07-2.14.31-3.14,2.8-3.06,5.73.18,11.47.14,17.2.02,2.07-.04,2.8.51,2.78,2.69-.11,9.45-.09,18.91-.02,28.36.01,1.92-.26,2.95-2.6,2.88-5.85-.16-11.72-.12-17.58-.02-1.93.03-2.63-.53-2.58-2.52.12-4.85.04-9.7.04-14.55Z"/>
      <path class="cls-1" d="M270.89,208.2c0-4.73.08-9.46-.04-14.18-.05-1.89.43-2.62,2.47-2.58,5.98.13,11.97.11,17.95,0,1.79-.03,2.36.51,2.34,2.31-.08,9.7-.1,19.41.01,29.11.03,2.16-.85,2.43-2.66,2.41-5.86-.09-11.72-.1-17.58,0-1.96.04-2.59-.57-2.54-2.53.13-4.85.04-9.7.04-14.55Z"/>
      <path class="cls-1" d="M338.76,264.93c0,4.61-.08,9.22.04,13.83.05,1.95-.26,2.94-2.58,2.88-5.87-.15-11.74-.13-17.61,0-2.08.05-2.47-.77-2.46-2.63.07-9.6.08-19.19,0-28.79-.02-1.99.64-2.55,2.58-2.51,5.87.11,11.74.12,17.61,0,2.08-.04,2.5.79,2.46,2.64-.1,4.86-.03,9.72-.03,14.58Z"/>
      <path class="cls-1" d="M316.18,208.27c0-4.73.04-9.45-.02-14.18-.02-1.68.04-2.73,2.31-2.66,5.98.18,11.96.11,17.95.03,1.7-.02,2.4.35,2.39,2.24-.09,9.7-.07,19.4-.02,29.1,0,1.62-.21,2.5-2.18,2.47-6.11-.11-12.22-.12-18.32,0-2.03.04-2.16-.89-2.14-2.46.07-4.85.03-9.7.03-14.55Z"/>
      <path class="cls-1" d="M316.18,320.91c0-4.74.08-9.48-.04-14.21-.05-1.9.45-2.6,2.48-2.55,5.87.13,11.74.11,17.61,0,1.92-.03,2.59.52,2.57,2.52-.09,9.6-.09,19.2,0,28.8.02,1.92-.5,2.62-2.52,2.57-5.87-.12-11.75-.12-17.61,0-2,.04-2.57-.62-2.53-2.55.11-4.86.04-9.72.04-14.58Z"/>
    </g>
  </g>
</svg>