<?xml version="1.0" encoding="UTF-8"?>
<svg id="Camada_2" xmlns="http://www.w3.org/2000/svg" viewBox="0 0 280.03 343.09">
  <defs>
    <style>
      .cls-1 {
        fill: #ddd9d4;
      }
    </style>
  </defs>
  <g id="Camada_1-2" data-name="Camada_1">
    <g>
      <path class="cls-1" d="M0,171.56c0-47.25-.01-94.51,0-141.76C.02,14.79,8.51,3.61,22.27.61,24.8.06,27.48.03,30.09.03,103.42,0,176.75,0,250.08.01c18.27,0,29.93,11.66,29.94,29.93.02,94.38.02,188.77,0,283.15,0,18.28-11.66,29.98-29.89,29.98-73.46.02-146.91.02-220.37,0-18.02,0-29.73-11.73-29.75-29.74-.03-47.25-.01-94.51-.01-141.76ZM256.04,171.59c0-46.76,0-93.53,0-140.29,0-6.7-.63-7.35-7.17-7.35-72.6,0-145.19,0-217.79,0-6.36,0-7.08.72-7.08,7.06,0,93.65,0,187.31,0,280.96,0,6.45.69,7.16,6.98,7.16,72.72,0,145.44,0,218.16,0,6.11,0,6.9-.78,6.9-6.88,0-46.89,0-93.78,0-140.67Z"/>
      <path class="cls-1" d="M239.91,171.53c0,33.66-.41,67.34.16,100.99.32,18.61-13.56,31.04-30.78,30.87-46.34-.47-92.7-.42-139.04-.02-16.68.14-31.04-12.26-30.19-30.21.37-7.71.03-15.46.09-23.19.02-1.97-.22-3.35-2.29-4.51-3.97-2.23-5.82-5.95-5.81-10.58.04-10.22.04-20.45,0-30.67-.02-4.91,1.89-8.75,6.21-11.12,1.63-.89,1.89-1.99,1.88-3.6-.04-11.97-.06-23.94.02-35.91.01-1.86-.59-2.85-2.21-3.8-3.94-2.33-5.91-5.91-5.9-10.55.02-10.35.02-20.7,0-31.05,0-4.76,1.91-8.53,6.09-10.8,1.81-.98,2.01-2.19,2-3.91-.05-7.98-.05-15.96-.02-23.94.06-18.04,11.72-29.69,29.74-29.69,46.72,0,93.45,0,140.17,0,18.26,0,29.86,11.61,29.87,29.94.02,33.91,0,67.83,0,101.74ZM215.92,171.92c0-33.79,0-67.58,0-101.37,0-6.04-.7-6.75-6.57-6.75-46.22,0-92.44,0-138.67,0-5.76,0-6.57.77-6.57,6.37,0,67.58,0,135.15,0,202.73,0,5.61.81,6.39,6.56,6.39,46.1,0,92.19,0,138.29,0,6.41,0,6.95-.55,6.95-7.12,0-33.41,0-66.83,0-100.24Z"/>
      <path class="cls-1" d="M119.12,186.54c-3.25,0-6.5.02-9.74,0-4.71-.04-5.79-1.94-3.39-6.05,10.15-17.42,20.33-34.82,30.5-52.23,3.45-5.91,6.91-11.82,10.35-17.74.98-1.7,2.07-3.33,4.36-2.54,2.3.8,2.06,2.71,1.81,4.68-1.74,13.72-3.33,27.45-5.2,41.15-.36,2.62.46,2.82,2.62,2.79,6.74-.11,13.49-.06,20.24-.03,4.7.02,5.8,1.96,3.41,6.05-13.55,23.21-27.13,46.41-40.69,69.62-1.04,1.78-2.03,3.72-4.53,2.87-2.53-.87-2.01-3.01-1.75-5.04,1.71-13.59,3.29-27.21,5.15-40.78.36-2.62-.47-2.87-2.62-2.78-3.49.14-6.99.04-10.49.04Z"/>
    </g>
  </g>
</svg>