<?xml version="1.0" encoding="UTF-8"?>
<svg id="Camada_2" xmlns="http://www.w3.org/2000/svg" viewBox="0 0 327.81 383.12">
  <defs>
    <style>
      .cls-1 {
        fill: #ddd9d4;
      }
    </style>
  </defs>
  <g id="Camada_1-2" data-name="Camada_1">
    <g>
      <path class="cls-1" d="M298.59,0c1.9,1.25,4.2.98,6.27,1.7,13.76,4.79,22.86,17.34,22.9,32.21.08,31.92.03,63.84.03,95.76,0,57.36.02,114.71-.02,172.07-.01,17.09-11.01,30.63-27.44,33.87-5.29,1.04-10.7.57-16.05.46-2.79-.06-3.87.49-3.77,3.6.25,7.85.11,15.71.08,23.56-.06,11.98-7.94,19.82-19.97,19.85-10.47.03-20.95.04-31.42,0-11.52-.05-19.5-8-19.59-19.48-.06-7.73-.16-15.47.06-23.19.09-3.22-.51-4.44-4.15-4.37-12.84.26-25.69.26-38.53,0-3.5-.07-4.05,1.07-3.97,4.18.22,7.72.11,15.46.06,23.19-.08,11.75-8,19.64-19.77,19.68-10.6.04-21.2.05-31.8,0-11.28-.06-19.32-8.04-19.41-19.28-.07-8.1-.16-16.21.07-24.31.08-2.94-.89-3.43-3.57-3.42-7.43,0-14.91.74-22.15-2.13-12.59-5-21.24-16.98-21.51-30.51-.09-4.61-.33-9.25.06-13.83.32-3.81-1.08-4.5-4.54-4.36-6.85.29-13.71.13-20.57.07-12.16-.11-19.85-7.8-19.87-19.87-.02-10.85-.04-21.7,0-32.54.04-11.75,7.94-19.6,19.75-19.65,7.48-.03,14.96-.07,22.44.04,2.03.03,2.75-.4,2.74-2.61-.08-28.3-.08-56.61,0-84.91,0-2.28-.56-2.97-2.9-2.92-7.48.15-14.96.1-22.44.05C7.77,122.81.06,115.03.03,103.15c-.03-10.97-.05-21.95,0-32.92.06-11.33,8.01-19.29,19.28-19.34,7.61-.03,15.22-.11,22.82.06,2.37.05,2.88-.64,2.85-2.91-.09-6.23-.58-12.56.32-18.67,2.17-14.71,10.83-24.16,25.15-28.36.73-.22,1.86.2,2.17-1h225.98ZM67.37,167.92c0,44.15,0,88.29,0,132.44,0,9.28,4.11,13.34,13.48,13.34,70.34,0,140.67,0,211.01,0,9.37,0,13.48-4.07,13.48-13.34,0-88.17,0-176.33,0-264.5,0-9.23-4.2-13.4-13.48-13.4-70.34,0-140.67,0-211.01,0-9.28,0-13.48,4.17-13.48,13.41,0,44.02,0,88.04,0,132.06ZM127.99,336.14c-3.61,0-7.23.08-10.83-.03-1.82-.05-2.69.29-2.64,2.41.13,6.6.1,13.2.01,19.8-.02,1.71.35,2.39,2.23,2.36,7.22-.1,14.45-.1,21.67,0,1.83.02,2.29-.58,2.27-2.34-.09-6.6-.12-13.2,0-19.8.04-2.09-.78-2.5-2.63-2.44-3.36.12-6.72.03-10.09.03ZM245.13,336.14c-3.49,0-6.98.13-10.46-.05-2.21-.11-2.7.73-2.67,2.78.12,6.47.09,12.95,0,19.42-.02,1.7.34,2.41,2.23,2.38,7.22-.1,14.45-.1,21.67,0,1.82.02,2.3-.55,2.28-2.32-.1-6.6-.12-13.2,0-19.8.04-2.06-.72-2.52-2.6-2.46-3.48.13-6.97.04-10.46.04ZM22.47,86.93c0,3.61.11,7.23-.04,10.84-.08,2.03.42,2.8,2.62,2.74,5.73-.16,11.46-.14,17.19,0,2.07.05,2.77-.46,2.73-2.64-.14-7.35-.12-14.7,0-22.05.03-1.91-.41-2.58-2.44-2.53-5.85.14-11.71.12-17.56.01-1.87-.03-2.63.37-2.53,2.43.17,3.73.05,7.47.05,11.21ZM44.92,249.5c0-3.85-.09-7.71.04-11.55.06-1.78-.47-2.33-2.28-2.3-5.96.11-11.93.09-17.89,0-1.68-.02-2.39.3-2.36,2.2.11,7.58.09,15.16,0,22.73-.02,1.75.43,2.35,2.27,2.32,5.96-.11,11.93-.14,17.89.01,2.14.05,2.41-.85,2.36-2.62-.1-3.6-.03-7.21-.03-10.81Z"/>
      <path class="cls-1" d="M186.35,122.9c-24.82,0-49.63.01-74.45,0-12.81,0-20.43-7.64-20.45-20.46-.02-10.47-.03-20.95,0-31.42.04-12.29,7.86-20.12,20.07-20.13,49.88,0,99.77,0,149.65,0,12.21,0,20.03,7.82,20.08,20.12.04,10.6.04,21.2,0,31.8-.05,12.34-7.76,20.07-20.07,20.09-24.94.03-49.88,0-74.82,0ZM130.61,100.45c4.73,0,9.47-.08,14.19.04,1.92.05,2.58-.52,2.55-2.51-.11-7.47-.1-14.94,0-22.41.03-1.88-.65-2.27-2.37-2.26-9.59.07-19.18.07-28.76,0-1.73-.01-2.39.41-2.36,2.27.1,7.47.11,14.94,0,22.41-.03,2.01.65,2.55,2.56,2.5,4.73-.11,9.46-.04,14.19-.04ZM242.1,73.33c-4.73,0-9.47.08-14.19-.04-1.89-.05-2.59.42-2.56,2.46.12,7.47.1,14.94,0,22.41-.02,1.84.62,2.33,2.37,2.32,9.59-.07,19.18-.07,28.76,0,1.75.01,2.39-.48,2.36-2.32-.09-7.47-.11-14.94,0-22.41.03-2.04-.68-2.5-2.56-2.46-4.73.11-9.46.04-14.19.04ZM186.21,100.45c4.74,0,9.48-.08,14.21.04,1.88.05,2.6-.38,2.57-2.44-.12-7.48-.1-14.96-.01-22.44.02-1.76-.42-2.34-2.26-2.33-9.6.09-19.2.1-28.8,0-1.99-.02-2.19.78-2.18,2.42.07,7.35.1,14.71-.01,22.06-.03,2.05.46,2.82,2.65,2.74,4.61-.17,9.22-.05,13.84-.05Z"/>
      <path class="cls-1" d="M184.48,156.94c19.81,0,39.62-.02,59.44.01,6.23,0,10.58,3.02,11.97,8.12,1.95,7.11-3.02,13.86-10.67,14.27-3.73.2-7.47.05-11.21.05-36.01,0-72.02,0-108.03-.01-1.49,0-3-.02-4.45-.3-5.79-1.14-9.65-6.14-9.22-11.8.43-5.69,4.96-10.18,10.87-10.26,11.96-.16,23.92-.07,35.88-.08,8.47,0,16.95,0,25.42,0Z"/>
      <path class="cls-1" d="M183.75,258.11c-4.1,0-7.69.06-11.27-.01-9.09-.18-14.31-8.08-10.66-16.34,4.72-10.68,9.59-21.29,14.5-31.88,2.91-6.27,9.39-8.76,15.19-6.04,5.63,2.64,7.91,9.12,5.24,15.25-2.36,5.44-4.88,10.81-7.49,16.58,4.13,0,7.83-.06,11.53.01,8.24.17,13.48,7.71,10.36,15.38-4.54,11.16-9.34,22.21-14.25,33.21-2.64,5.9-9.04,8.19-14.7,5.69-5.59-2.47-8.09-8.74-5.68-14.75,2.25-5.61,4.7-11.13,7.23-17.1Z"/>
    </g>
  </g>
</svg>