<?xml version="1.0" encoding="UTF-8"?>
<svg id="Camada_2" xmlns="http://www.w3.org/2000/svg" viewBox="0 0 206.85 390.51">
  <defs>
    <style>
      .cls-1 {
        fill: #ddd9d4;
      }
    </style>
  </defs>
  <g id="Camada_1-2" data-name="Camada_1">
    <g>
      <path class="cls-1" d="M103.27,315.01c-31.34,0-62.67,0-94.01,0-1.41,0-2.85.08-4.23-.14-3.03-.5-4.79-2.38-5.01-5.45-.23-3.22,1.22-5.51,4.39-6.32,1.59-.41,3.3-.42,4.96-.42,28-.02,56.01-.08,84.01.07,3.22.02,3.95-.77,3.94-3.96-.12-42.39-.11-84.78,0-127.17,0-3.02-.59-3.95-3.8-4.31-40.52-4.57-72.49-38.98-74.05-79.42C17.87,46.24,46.21,9.83,86.54,1.71c47.28-9.52,92.16,21.71,99.96,69.54,7.31,44.86-24.8,88.93-69.64,95.57q-7.26,1.08-7.26,8.54c0,40.98.06,81.95-.1,122.93-.02,3.85,1.08,4.48,4.63,4.46,27.74-.16,55.49-.09,83.24-.08,1.41,0,2.84-.03,4.22.21,3.51.6,5.52,3.08,5.25,6.44-.28,3.45-2.3,5.3-5.69,5.64-1.15.12-2.31.05-3.47.05-29.16,0-58.32,0-87.48,0-2.3,0-4.61,0-6.92,0ZM103.09,155.37c35.86,1.4,72.54-28.91,71.97-72.81-.51-39.06-33.17-70.66-72.47-70.15-39.9.52-71.33,32.89-70.82,72.96.49,38.61,33,70.52,71.32,70.01Z"/>
      <path class="cls-1" d="M102.98,352.78c-22.33,0-44.66,0-67,0-1.41,0-2.83.04-4.23-.14-3.25-.41-5.13-2.42-5.35-5.59-.23-3.38,1.57-5.6,4.89-6.37,1.23-.28,2.55-.25,3.82-.25,45.56-.01,91.12-.01,136.69,0,1.4,0,2.85.03,4.19.39,2.97.79,4.54,2.94,4.44,5.95-.11,3.17-1.86,5.28-5.09,5.82-1.38.23-2.81.17-4.22.17-22.72,0-45.43,0-68.15,0Z"/>
      <path class="cls-1" d="M103.66,390.49c-12.83,0-25.65.02-38.48,0-4.88,0-7.71-2.27-7.74-6.06-.03-3.78,2.88-6.26,7.64-6.26,25.65-.03,51.3,0,76.95-.02,2.9,0,5.37.84,6.7,3.59,1.09,2.25.78,4.52-.76,6.51-1.58,2.04-3.84,2.27-6.23,2.27-12.7-.03-25.39-.02-38.09-.02Z"/>
      <path class="cls-1" d="M108.75,87.6c-6.63,0-13.26-.07-19.88.03-3.16.04-6-.44-7.38-3.66-1.44-3.35.14-5.83,2.51-8.18,11.67-11.58,23.27-23.23,34.89-34.85,1.18-1.18,2.28-2.52,3.98-2.91,2.88-.65,5.43-.06,7.01,2.64,1.73,2.95,1.08,5.66-1.28,8.02-7.62,7.63-15.25,15.26-22.89,22.88-.98.98-2.03,1.89-3.95,3.68,3.3,0,5.51,0,7.71,0,5.01,0,10.02-.05,15.02.05,2.61.06,4.76,1.19,5.81,3.73,1.09,2.64.49,5.03-1.49,7.06-1.07,1.11-2.17,2.19-3.26,3.28-12.26,12.26-24.52,24.52-36.78,36.78-.64.64-1.25,1.3-1.92,1.9-2.99,2.69-6.43,2.84-8.96.42-2.64-2.53-2.62-6.22.33-9.22,7.93-8.05,15.95-16.01,23.96-23.99,2.26-2.25,4.57-4.44,6.86-6.66-.1-.33-.21-.67-.31-1Z"/>
    </g>
  </g>
</svg>