<?xml version="1.0" encoding="UTF-8"?>
<svg id="Camada_2" xmlns="http://www.w3.org/2000/svg" viewBox="0 0 329.85 338.07">
  <defs>
    <style>
      .cls-1 {
        fill: #ddd9d4;
      }
    </style>
  </defs>
  <g id="Camada_1-2" data-name="Camada_1">
    <g>
      <path class="cls-1" d="M219.4,64.94c17.86,0,35.72-.02,53.58,0,18.42.02,30.96,11.33,32.55,29.56.2,2.32.85,2.93,3.05,2.76,5.24-.4,10.22.46,14.44,3.89,4.42,3.59,6.72,8.28,6.78,13.96.07,7.1.03,14.21.02,21.32-.03,12-7.21,19.27-19.26,19.53-4.87.1-4.82.11-4.89,4.95-.19,12.71.51,25.43-.42,38.13-2.61,35.54-29.8,66.84-65,73.78-27.06,5.34-52.79,1.97-75.2-15.49-21.05-16.39-31.82-38.17-32.29-64.86-.2-11.09-.12-22.19.03-33.28.03-2.54-.51-3.48-3.22-3.3-4.4.3-8.76-.21-12.58-2.73-5.23-3.46-8.27-8.24-8.33-14.61-.08-7.85-.11-15.71,0-23.56.13-9.9,7.6-17.42,17.5-17.77,2-.07,4.38.62,5.89-.24,1.75-.99.61-3.65.94-5.55,2.77-15.88,15.11-26.44,31.34-26.5,18.36-.06,36.72-.01,55.08-.01ZM219.44,76.42c-18.11,0-36.23-.07-54.34.02-12.67.07-20.49,8.02-20.54,20.63,0,2.37.08,4.74.08,7.1,0,30.17-.04,60.34-.02,90.51,0,7.55,1.57,14.85,4.24,21.88,11.94,31.41,43.45,52.82,85.52,45.49,35.93-6.26,59.47-35.31,59.49-71.71.02-30.67,0-61.34,0-92.02,0-14.27-7.64-21.9-21.96-21.91-17.49-.02-34.98,0-52.47,0ZM132.72,126.72c0-5.11.03-10.22-.03-15.33-.01-.84.57-1.93-.87-2.47-5.97-2.22-11.41,1.34-11.47,7.66-.06,5.98-.01,11.97-.01,17.95,0,8.34,1.91,10.12,10.14,9.84,1.8-.06,2.32-.53,2.28-2.31-.11-5.11-.04-10.22-.04-15.33ZM305.69,126.73c0,4.98-.03,9.95.03,14.93,0,.89-.51,2,.77,2.59,5.19,2.42,11.44-1.44,11.49-7.17.06-7.09.06-14.18,0-21.27-.04-4.65-2.18-6.73-6.88-6.9-1-.04-2.01.1-2.99-.03-2.06-.27-2.48.7-2.44,2.55.1,5.1.04,10.2.04,15.3Z"/>
      <path class="cls-1" d="M54.84,44.79c0-7.11-.03-14.21,0-21.32.03-5.42,1.99-7.4,7.5-7.44,9.24-.06,18.49-.05,27.73.01,2.1.01,3.81-.54,5.49-1.85,5.41-4.21,10.97-8.23,16.41-12.41,2.02-1.55,4.08-2.1,6.62-1.63,10.54,1.96,21.1,3.81,31.65,5.7,5.1.91,6.49,2.54,6.5,7.77.02,5.73-.05,11.47.02,17.2.05,3.86-1.71,6.05-5.53,6.72-11.05,1.94-22.1,3.89-33.14,5.9-2.4.44-4.35-.19-6.25-1.67-4.53-3.52-9.31-6.73-13.68-10.43-3.33-2.83-6.78-4.07-11.18-3.81-5.98.35-11.99.14-17.98.05-1.72-.03-2.38.37-2.37,2.24.08,12.71.07,25.43,0,38.15,0,1.55.64,1.99,1.99,2.52,8.86,3.48,13.32,10.02,13.29,19.58-.03,9.35.03,18.7-.04,28.05-.01,1.95.41,3.6,1.53,5.23,2.96,4.33,4.39,9.15,4.39,14.41-.01,29.79.06,59.59-.03,89.38-.04,11.92-7.11,21.56-18.5,25.34-2.08.69-2.65,1.51-2.62,3.58.11,9.1.08,18.2.04,27.3-.05,12.13-8.19,20.44-20.36,20.63-8.12.13-16.24,0-24.36.04-7.38.04-10.07,2.81-10.09,10.23-.01,5.61.04,11.22-.02,16.83-.05,4.37-2.48,7.08-6.08,6.97-3.51-.1-5.71-2.67-5.75-6.9-.05-6.36-.1-12.72.01-19.07.2-11.07,8.75-19.5,19.87-19.61,8.49-.08,16.99.01,25.48-.03,6.41-.03,9.4-2.99,9.43-9.38.04-8.98-.04-17.95.05-26.93.02-1.98-.38-2.93-2.54-3.65-11.69-3.92-18.6-13.69-18.61-26.06-.04-29.3,0-58.59-.02-87.89,0-5.38,1.23-10.39,4.23-14.85,1.25-1.86,1.75-3.69,1.73-5.9-.09-9.35-.03-18.7-.04-28.05,0-9.26,4.41-15.62,12.89-19.07,1.84-.75,2.38-1.55,2.35-3.45-.11-7.48-.04-14.96-.04-22.44ZM45.58,182.1h-.02c0,14.59.02,29.17-.02,43.76,0,3.3.44,6.42,2.26,9.28,3.64,5.71,10.38,8.39,16.88,6.62,7.31-1.99,11.41-7.57,11.42-15.93.04-28.8.02-57.59,0-86.39,0-2.24-.14-4.46-.94-6.61-2.5-6.66-9.48-10.96-16.25-9.94-7.75,1.17-13.23,7.01-13.3,14.73-.14,14.83-.04,29.67-.04,44.5ZM70.28,112.67c0-8.01.18-15.85-.06-23.67-.17-5.43-3.65-7.94-10.02-7.91-5.38.02-8.62,2.77-8.78,7.99-.21,7.21-.05,14.42-.1,21.63,0,1.42.21,2,1.88,1.52,5.64-1.62,11.3-1.26,17.07.43ZM104.82,21.82c3.56,2.7,6.95,5.04,10.06,7.71,2.11,1.81,4.23,2.16,6.84,1.64,5.37-1.07,10.77-1.97,16.16-2.92,7.47-1.31,7.42-1.3,7.17-9.04-.06-1.74-.37-2.62-2.37-2.94-7.74-1.24-15.44-2.69-23.15-4.11-.9-.17-1.67-.2-2.45.4-4.04,3.07-8.1,6.11-12.27,9.25Z"/>
      <path class="cls-1" d="M188.23,40.97c-4.99-.17-10.94-1.2-16.09-5.01-10.28-7.6-10.04-21.56.59-28.68,8.41-5.64,17.73-5.37,27.07-3.44,10.86,2.24,20.7,7.11,30.08,12.87,3.91,2.4,3.97,7.3.39,10.03-9.4,7.17-29.54,14.19-42.04,14.24ZM214.19,21.85c-5.73-3-11.16-5.04-16.9-6.22-5.54-1.15-11.13-1.74-16.48.8-2.21,1.05-3.96,2.65-3.96,5.39,0,2.75,1.76,4.33,3.95,5.4,3.81,1.87,7.9,2.1,12.05,1.58,7.37-.93,14.24-3.41,21.33-6.95Z"/>
      <path class="cls-1" d="M219.25,100.07c16.48,0,32.95-.02,49.43,0,9.13.01,13.88,4.73,13.89,13.77.02,8.6.03,17.19,0,25.79-.03,8.46-5.02,13.55-13.46,13.55-33.33.03-66.65.04-99.98,0-8.3,0-13.21-5.01-13.24-13.3-.03-8.97-.04-17.94,0-26.91.04-7.92,4.87-12.86,12.8-12.89,16.85-.06,33.7-.02,50.55-.02ZM219.26,141.45c16.1,0,32.2-.04,48.3.04,2.24.01,3.29-.27,3.22-2.94-.2-7.97-.18-15.94,0-23.91.05-2.51-.72-3.11-3.14-3.11-32.2.07-64.39.07-96.59,0-2.49,0-3.51.49-3.44,3.24.18,7.84.19,15.7,0,23.54-.07,2.76.87,3.22,3.38,3.2,16.1-.11,32.2-.06,48.3-.06Z"/>
      <path class="cls-1" d="M219.28,176.73c12.23,0,24.45-.01,36.68.02,1.36,0,2.76.04,4.07.36,2.61.63,4,2.49,4.16,5.11.16,2.62-1.06,4.5-3.48,5.63-1.18.55-2.41.56-3.66.56-25.2,0-50.4,0-75.6,0-1.38,0-2.73,0-4.01-.65-2.22-1.12-3.46-2.95-3.34-5.38.13-2.55,1.46-4.52,4.06-5.22,1.3-.35,2.7-.41,4.06-.42,12.35-.03,24.7-.02,37.05-.02Z"/>
      <path class="cls-1" d="M219.03,213.96c-9.1,0-18.21.02-27.31,0-4.53-.01-7.2-2.17-7.25-5.73-.04-3.52,2.67-5.78,7.17-5.79,18.33-.03,36.66-.03,54.99,0,4.59,0,7.25,2.17,7.26,5.71.02,3.54-2.71,5.79-7.19,5.81-9.23.03-18.46,0-27.68,0Z"/>
      <path class="cls-1" d="M54.86,182.48c0-8.48-.02-16.95,0-25.43.02-4.63,2.42-7.49,6.08-7.38,3.57.11,5.74,2.8,5.75,7.3.02,17.08.02,34.15,0,51.23,0,4.5-2.22,7.14-5.85,7.17-3.63.03-5.94-2.63-5.97-7.08-.05-8.6-.01-17.2-.01-25.8Z"/>
    </g>
  </g>
</svg>