<?xml version="1.0" encoding="UTF-8"?>
<svg id="Camada_2" xmlns="http://www.w3.org/2000/svg" viewBox="0 0 360.08 359.13">
  <defs>
    <style>
      .cls-1 {
        fill: #ddd9d4;
      }
    </style>
  </defs>
  <g id="Camada_1-2" data-name="Camada_1">
    <g>
      <path class="cls-1" d="M71.98,161.6c15.67,0,31.16-.04,46.65.05,2.07.01,2.48-.94,2.73-2.6.86-5.54,1.72-11.07,2.72-16.58.84-4.62,3.68-6.93,7.26-6.18,3.51.74,5.17,3.7,4.49,8.12-.87,5.64-1.79,11.26-2.73,17.19h35.1c4.62,0,9.27-.29,13.86.09,3.54.3,3.98-1.06,3.93-4.12-.18-11.34-.18-22.69,0-34.04.05-2.96-.46-3.99-3.74-3.92-12.24.23-24.49.05-36.73.12-3.04.02-5.46-.89-6.7-3.75-1.54-3.56.8-7.57,4.69-8.16,1.1-.17,2.24-.08,3.37-.08,51.1,0,102.21,0,153.31,0,11.52,0,17.56,4.58,20.45,15.7,12.83,49.35,25.66,98.7,38.41,148.06,1.8,6.97.66,14.15.76,21.22.17,12.3-.2,12.55-12.48,12.55-40.61,0-81.22.03-121.82-.06-2.84,0-3.9.57-3.67,3.59.29,3.84.21,7.73.02,11.59-.12,2.28.48,2.94,2.85,2.9,9.49-.15,18.99-.08,28.49-.06,5.65.01,7.68,2.02,7.7,7.62.02,6.98.03,13.97,0,20.95-.02,5.15-2.15,7.33-7.24,7.33-41.11.02-82.22.02-123.32,0-5.18,0-7.35-2.13-7.38-7.19-.04-7.23-.05-14.46,0-21.7.03-4.84,2.23-6.99,7.16-7.01,9.5-.04,19-.15,28.49.07,2.92.07,3.56-.81,3.39-3.51-.24-3.73-.29-7.5.01-11.21.24-2.96-.86-3.38-3.52-3.37-29.36.1-58.72.06-88.09.06-11,0-21.99.02-32.99,0-5.35-.01-7.41-2.11-7.43-7.51-.02-6.98-.21-13.97.05-20.95.26-7.02,2.93-13.58,4.65-20.31,8.35-32.65,16.9-65.25,25.38-97.86,1.35-5.18,4.13-7.36,7.94-6.25,3.59,1.05,4.75,3.56,3.98,9.23ZM194.91,281.32H49.85c-7.88,0-7.69,0-7.97,7.86-.12,3.42.86,4.19,4.23,4.19,97.83-.1,195.67-.08,293.5-.08,8.26,0,8.1,0,8.34-8.23.09-3.14-.75-3.82-3.85-3.82-49.73.11-99.46.08-149.19.08ZM274.75,269.2c-2.22-13.44-4.43-26.69-6.57-39.96-.32-1.98-1.59-1.81-2.99-1.81-21.49.01-42.97.05-64.46-.05-2.33-.01-2.89.58-2.87,2.88.13,11.97.15,23.94-.01,35.9-.03,2.64.65,3.26,3.27,3.24,23.48-.11,46.97-.06,70.45-.07.98,0,1.97-.08,3.18-.14ZM150.42,269.34c10.87,0,21.74-.06,32.6.05,2.17.02,2.99-.33,2.96-2.78-.15-12.22-.1-24.43-.03-36.65,0-1.81-.28-2.58-2.4-2.57-19.74.09-39.47.07-59.21.02-1.66,0-2.48.42-2.75,2.13-2.01,12.41-4.04,24.82-6.17,37.21-.38,2.22.27,2.67,2.4,2.65,10.87-.1,21.74-.05,32.6-.05ZM265.77,215.47c-2.25-13.62-4.46-26.88-6.61-40.14-.27-1.68-1.27-1.78-2.65-1.77-18.74.03-37.47.05-56.21-.03-2.06,0-2.44.68-2.42,2.54.07,12.34.06,24.68,0,37.02,0,1.6.14,2.44,2.15,2.43,21.73-.07,43.45-.05,65.74-.05ZM124.06,215.47c20.21,0,40.18-.02,60.14.03,1.67,0,1.74-.8,1.74-2.06-.03-12.59-.04-25.18.02-37.77,0-1.58-.37-2.14-2.06-2.13-16.99.06-33.98.05-50.96,0-1.4,0-2.03.47-2.25,1.81-2.17,13.26-4.37,26.52-6.62,40.12ZM73.46,269.34c8.87,0,17.74-.01,26.61,0,1.53,0,2.87.15,3.21-2.01,2-12.54,4.08-25.07,6.2-37.59.29-1.73.02-2.36-1.96-2.36-16.87.08-33.73.08-50.6,0-1.89,0-2.54.67-2.98,2.41-3.13,12.29-6.34,24.56-9.59,36.83-.54,2.02-.27,2.8,2.12,2.76,8.99-.14,17.99-.06,26.99-.06ZM316.28,269.34c8.75,0,17.49-.11,26.24.06,2.84.06,3.62-.38,2.79-3.4-3.27-11.87-6.35-23.79-9.3-35.74-.57-2.31-1.5-2.88-3.76-2.87-16.24.1-32.49.17-48.73-.04-3.39-.04-3.46,1.22-3.02,3.79,2.04,11.78,4.05,23.56,5.89,35.37.38,2.41,1.4,2.91,3.64,2.88,8.74-.12,17.49-.05,26.24-.05ZM227.41,161.6c8.49,0,16.99-.15,25.48.08,3.15.09,4.01-.56,3.42-3.8-2.14-11.75-4.05-23.55-5.95-35.34-.33-2.01-.9-2.92-3.24-2.9-15.49.12-30.98.13-46.47,0-2.46-.02-2.8.79-2.79,2.95.1,12.09.13,24.18-.02,36.27-.03,2.45.78,2.81,2.96,2.79,8.87-.12,17.74-.05,26.61-.05ZM57.73,215.47c17.53,0,34.76-.03,52,.05,1.86,0,2.4-.77,2.58-2.33.12-1.11.3-2.22.48-3.33,1.86-11.05,3.75-22.09,5.54-33.15.2-1.25,1.42-3.21-1.7-3.19-15.37.11-30.73.05-46.1.04-1.22,0-2,.14-2.38,1.64-3.39,13.35-6.89,26.67-10.42,40.26ZM332.11,215.47c-3.47-13.34-6.89-26.2-10.09-39.1-.57-2.32-1.52-2.86-3.75-2.84-14.74.1-29.49.12-44.23-.02-2.66-.03-3.04.8-2.63,3.13,2.09,12.15,4.09,24.31,6.1,36.47.24,1.48.58,2.42,2.51,2.41,17.24-.08,34.47-.05,52.1-.05ZM318.15,161.6c-3.33-12.72-6.53-25.1-9.85-37.46-.92-3.42-3.54-4.48-6.9-4.46-12.12.05-24.23.11-36.35-.05-2.67-.03-3.03.81-2.63,3.13,2.09,12.14,4.1,24.3,6.08,36.46.29,1.77.93,2.5,2.89,2.43,4.49-.17,8.99-.05,13.49-.05,10.97,0,21.93,0,33.27,0ZM191.9,347.16c16.24,0,32.48,0,48.72,0,8.28,0,8.12,0,8.35-8.21.09-3.11-.7-3.85-3.83-3.84-33.86.13-67.71.08-101.57.08-8.68,0-8.55,0-8.72,8.59-.05,2.79.63,3.48,3.45,3.45,17.86-.15,35.73-.07,53.6-.07ZM191.92,305.26c-5.25,0-10.49.07-15.74-.04-1.8-.04-2.34.49-2.3,2.29.12,4.48.12,8.98,0,13.46-.05,1.81.5,2.3,2.3,2.29,10.49-.08,20.98-.08,31.47,0,1.8.01,2.34-.49,2.29-2.29-.12-4.48-.12-8.98,0-13.46.05-1.81-.5-2.33-2.3-2.29-5.24.11-10.49.04-15.74.04Z"/>
      <path class="cls-1" d="M71.68,109.18c-20.74-.23-37.34-17.17-37.16-37.93.17-20.52,17.42-37.11,38.27-36.8,20.4.31,36.92,17.51,36.6,38.09-.31,20.25-17.4,36.85-37.71,36.63ZM72.1,46.44c-14.02-.02-25.52,11.38-25.57,25.35-.05,13.93,11.5,25.43,25.49,25.41,13.83-.03,25.28-11.37,25.37-25.15.1-13.99-11.36-25.58-25.29-25.6Z"/>
      <path class="cls-1" d="M124.54,25.53c.11,1.65-.86,3.18-2.23,4.54-3.35,3.33-6.63,6.71-10.03,9.98-2.97,2.86-6.44,3.01-8.95.56-2.54-2.48-2.47-5.98.36-8.91,3.45-3.57,6.99-7.06,10.54-10.53,1.96-1.92,4.34-2.42,6.85-1.29,2.21.99,3.43,2.78,3.46,5.66Z"/>
      <path class="cls-1" d="M25.62,124.28c-2.76,0-4.48-1.12-5.56-3.14-1.09-2.03-1.23-4.33.3-5.98,4.06-4.38,8.25-8.69,12.7-12.67,2.3-2.06,5.23-1.62,7.47.54,2.24,2.17,2.75,5.05.79,7.44-3.86,4.72-8.3,8.95-12.93,12.94-.87.75-2.02.95-2.77.86Z"/>
      <path class="cls-1" d="M124.53,117.96c.07,2.79-1.08,4.61-3.27,5.71-2.2,1.11-4.56,1-6.31-.64-4.18-3.92-8.3-7.94-12.14-12.2-2.06-2.29-1.8-5.17.28-7.5,2.09-2.32,5-2.97,7.41-1.06,4.88,3.86,9.2,8.38,13.24,13.14.67.79.8,1.8.78,2.54Z"/>
      <path class="cls-1" d="M25.49,19.36c1.9-.05,3.32.9,4.59,2.16,3.35,3.34,6.75,6.64,10.05,10.04,2.83,2.92,2.96,6.5.48,8.97-2.49,2.47-6.03,2.34-8.98-.51-3.58-3.46-7.1-7-10.56-10.58-1.92-1.99-2.28-4.4-1.04-6.88,1.1-2.18,2.96-3.3,5.46-3.21Z"/>
      <path class="cls-1" d="M65.96,13.46c0-2.48-.09-4.97.03-7.45.17-3.54,2.58-5.95,5.85-6.01,3.39-.07,6,2.42,6.09,6.14.12,5.09.12,10.18,0,15.27-.08,3.73-2.66,6.26-6.04,6.22-3.37-.04-5.79-2.57-5.91-6.35-.09-2.6-.02-5.21-.01-7.82Z"/>
      <path class="cls-1" d="M13.83,77.8c-2.49,0-4.98.07-7.46-.02C2.56,77.66.05,75.29,0,71.9c-.05-3.39,2.44-5.96,6.18-6.04,5.1-.11,10.2-.11,15.3,0,3.73.08,6.26,2.68,6.2,6.05-.06,3.36-2.6,5.75-6.39,5.88-2.49.08-4.98.02-7.46.02Z"/>
      <path class="cls-1" d="M130.31,65.84c2.61,0,5.23-.12,7.83.03,3.47.21,5.85,2.83,5.77,6.08-.08,3.09-2.39,5.68-5.68,5.78-5.47.17-10.95.18-16.42,0-3.26-.11-5.56-2.78-5.59-5.87-.03-3.24,2.38-5.8,5.87-5.99,2.73-.14,5.47-.03,8.21-.03Z"/>
      <path class="cls-1" d="M65.96,129.49c0-2.48-.09-4.97.02-7.45.16-3.53,2.59-5.96,5.82-6.05,3.38-.09,6.02,2.43,6.11,6.13.12,5.09.11,10.18,0,15.27-.08,3.75-2.63,6.26-6.02,6.23-3.39-.03-5.8-2.53-5.93-6.32-.09-2.6-.02-5.21-.02-7.82Z"/>
    </g>
  </g>
</svg>